<svg xmlns:xlink="http://www.w3.org/1999/xlink" xmlns="http://www.w3.org/2000/svg" width="336.59999999999997" height="143.2447460523021" viewBox="0 0 389.9130434782609 165.9328428268678" class="looka-1j8o68f"><defs id="SvgjsDefs1322"></defs><g id="SvgjsG1323" featurekey="v37d4h-0" transform="matrix(1.7168686861844562,0,0,1.7168686861844562,-19.215461982742468,15.70856590331244)" fill="#000000"><path xmlns="http://www.w3.org/2000/svg" d="M65.532,53.661c2.473-2.341,2.081-5.645-0.869-7.341L59.1,43.118c-2.95-1.697-4.723-5.797-3.941-9.109l6.699-28.398  c0.781-3.312-0.602-4.108-3.073-1.767L24.467,36.339c-2.472,2.341-2.08,5.644,0.87,7.342l5.562,3.2  c2.949,1.698,4.724,5.798,3.943,9.109l-6.701,28.398c-0.78,3.312,0.602,4.107,3.074,1.767L65.532,53.661z"></path></g><g id="SvgjsG1324" featurekey="UxBHKT-0" transform="matrix(2.3752433430870292,0,0,2.3752433430870292,116.04750487022416,58.45631816807212)" fill="#000000"><path d="M-0.02 9.04 l3.32 0 l2.56 5.38 l2.56 -5.38 l3.34 0 l-5.9 11.44 z M21.34 18.9 q-0.38 0.52 -1.31 0.93 t-2.03 0.41 q-1.7 0 -2.95 -0.76 t-1.91 -2.07 t-0.66 -2.91 t0.66 -2.91 t1.91 -2.07 t2.95 -0.76 q1.14 0 2.01 0.39 t1.33 0.99 l0 -1.14 l2.96 0 l0 11 l-2.96 0 l0 -1.1 z M20.64 12.25 q-0.82 -0.87 -2.2 -0.87 q-1.4 0 -2.21 0.87 t-0.81 2.25 q0 1.34 0.83 2.22 t2.19 0.88 q1.4 0 2.21 -0.83 t0.81 -2.27 q0 -1.38 -0.82 -2.25 z M37.09 22.77 q-1.47 1.37 -4.09 1.37 q-3.14 0 -5.26 -1.66 l1.46 -2.12 q0.68 0.54 1.61 0.88 t1.97 0.34 q2.82 0 2.82 -2.56 l0 -0.18 q-1.2 0.98 -3.08 0.98 q-1.74 0 -3.06 -0.73 t-2.02 -1.99 t-0.7 -2.78 q0 -1.54 0.7 -2.79 t2.01 -1.99 t3.07 -0.74 q1.88 0 3.08 0.98 l0 -0.78 l2.96 0 l0 10.02 q0 2.38 -1.47 3.75 z M34.23 16.91 q0.69 -0.39 1.09 -1.08 t0.4 -1.51 q0 -0.84 -0.4 -1.52 t-1.09 -1.07 t-1.53 -0.39 q-1.36 0 -2.19 0.85 t-0.83 2.13 q0 1.32 0.81 2.15 t2.21 0.83 q0.84 0 1.53 -0.39 z M50.77 10.02 q1.03 1.22 1.03 3.48 l0 6.5 l-3.04 0 l0 -6.5 q0 -1.18 -0.59 -1.7 t-1.55 -0.52 q-0.82 0 -1.48 0.65 t-0.62 2.25 l0 5.82 l-2.98 0 l0 -15.14 l2.98 0 l0 5.12 q0.54 -0.54 1.36 -0.86 t1.58 -0.32 q2.28 0 3.31 1.22 z M58.42 16.08 q0 0.7 0.24 1.17 t1.12 0.47 q0.4 0 0.76 -0.04 l0 2.52 q-0.72 0.08 -1.34 0.08 q-1.28 0 -2.07 -0.21 t-1.23 -0.81 t-0.44 -1.72 l0 -6.1 l-1.34 0 l0 -2.62 l1.34 0 l0 -2.94 l2.96 0 l0 2.94 l2.2 0 l0 2.62 l-2.2 0 l0 4.64 z M65.73 19.74 q-1.37 -0.54 -2.35 -1.83 t-0.98 -3.37 t0.99 -3.36 t2.37 -1.82 t2.62 -0.54 q1.44 0 2.74 0.64 t2.13 1.88 t0.87 2.94 q0 0.52 -0.02 0.9 t-0.04 0.48 l-8.68 0 q0.24 1.16 1.2 1.58 t1.8 0.42 q1.08 0 1.72 -0.39 t1.1 -0.89 l2.32 1.34 q-1.88 2.56 -5.14 2.56 q-1.28 0 -2.65 -0.54 z M66.34 12.05 q-0.78 0.61 -0.88 1.49 l5.5 0 q-0.06 -0.52 -0.4 -1 t-0.91 -0.79 t-1.29 -0.31 q-1.24 0 -2.02 0.61 z M76.54 20 l0 -15.12 l2.96 0 l0 5.26 q0.46 -0.6 1.33 -0.99 t2.01 -0.39 q1.7 0 2.95 0.76 t1.91 2.07 t0.66 2.91 t-0.66 2.91 t-1.91 2.07 t-2.95 0.76 q-1.1 0 -2.03 -0.41 t-1.31 -0.93 l0 1.1 l-2.96 0 z M80.19000000000001 16.77 q0.81 0.83 2.21 0.83 q1.36 0 2.19 -0.88 t0.83 -2.22 q0 -1.38 -0.81 -2.25 t-2.21 -0.87 q-1.38 0 -2.2 0.87 t-0.82 2.25 q0 1.44 0.81 2.27 z M99.14000000000001 18.9 q-0.38 0.52 -1.31 0.93 t-2.03 0.41 q-1.7 0 -2.95 -0.76 t-1.91 -2.07 t-0.66 -2.91 t0.66 -2.91 t1.91 -2.07 t2.95 -0.76 q1.14 0 2.01 0.39 t1.33 0.99 l0 -1.14 l2.96 0 l0 11 l-2.96 0 l0 -1.1 z M98.44000000000001 12.25 q-0.82 -0.87 -2.2 -0.87 q-1.4 0 -2.21 0.87 t-0.81 2.25 q0 1.34 0.83 2.22 t2.19 0.88 q1.4 0 2.21 -0.83 t0.81 -2.27 q0 -1.38 -0.82 -2.25 z M114.27000000000002 10.02 q1.03 1.22 1.03 3.48 l0 6.5 l-3.06 0 l0 -6.5 q0 -2.22 -2.12 -2.22 q-0.82 0 -1.48 0.65 t-0.62 2.25 l0 5.82 l-2.98 0 l0 -11 l2.98 0 l0 0.98 q0.54 -0.54 1.36 -0.86 t1.58 -0.32 q2.28 0 3.31 1.22 z"></path></g></svg>